<svg xmlns="http://www.w3.org/2000/svg" width="70" height="70" viewBox="0 0 70 70" style="width: 100%; height: 100%;"><desc>Made with illustrio</desc>
  
<g class="base"><g fill="none" fill-rule="evenodd" stroke="none" class="main-fill">
    
    
    <path fill="none" d="M11.5294118,0.149132941 C5.16357059,0.149132941 0,5.58112059 0,11.26678 C0,13.6078353 0.411764706,18.26678 5.76470588,21.5608976 L11.5294118,31.4432506 L17.2941176,21.5608976 C22.6470588,18.26678 23.0588235,13.6078353 23.0588235,11.26678 C23.0588235,5.58112059 17.8952529,0.149132941 11.5294118,0.149132941 Z M11.5294118,5.51494176 C14.9365794,5.51494176 17.7058824,8.26708235 17.7058824,11.6785447 C17.7058824,15.0900153 14.9365794,17.8421476 11.5294118,17.8421476 C8.12224412,17.8421476 5.36580882,15.0900153 5.36580882,11.6785447 C5.36580882,8.26708235 8.12224412,5.51494176 11.5294118,5.51494176 Z M7.69485294,28.1362653 C5.07899741,28.7225976 3.29411765,29.8931162 3.29411765,31.2373682 C3.29411765,33.1704388 6.98118235,34.7373682 11.5294118,34.7373682 C16.0776371,34.7373682 19.7647059,33.1704388 19.7647059,31.2373682 C19.7647059,29.8931162 17.9798253,28.7225976 15.3639706,28.1362653 L12.9577206,32.26678 C12.6639396,32.7781653 12.1191763,33.0934676 11.5294118,33.0934676 C10.9396472,33.0934676 10.394884,32.7781653 10.1011029,32.26678 L7.69485294,28.1362653 Z" transform="translate(23.47 17.557)" stroke="none" class="main-fill"></path>
  </g></g><style>
          .main-fill {fill: #ffffff;}
          .main-stroke {stroke: #ffffff;}
          .secondary-fill {fill: #000000;}
          .secondary-stroke {stroke: #000000;}

          .main-fill--darken {fill: #d9d9d9;}
          .main-stroke--darken {stroke: #d9d9d9;}
          .secondary-fill--darken {fill: #000000;}
          .secondary-stroke--darken {stroke: #000000;}

          .main-fill--darkener {fill: #bfbfbf;}
          .main-stroke--darkener {stroke: #bfbfbf;}
          .secondary-fill--darkener {fill: #000000;}
          .secondary-stroke--darkener {stroke: #000000;}
        </style></svg>