<svg xmlns="http://www.w3.org/2000/svg" width="70" height="70" viewBox="0 0 70 70" style="width: 100%; height: 100%;"><desc>Made with illustrio</desc>
  
<g class="base"><g fill="none" fill-rule="evenodd" stroke="none" class="main-fill">
    
    <path fill="none" d="M15.9090909,0 C7.13681818,0 0,7.13681818 0,15.9090909 C0,24.6813636 7.13681818,31.8181818 15.9090909,31.8181818 C24.6813636,31.8181818 31.8181818,24.6813636 31.8181818,15.9090909 C31.8181818,7.13681818 24.6813636,0 15.9090909,0 L15.9090909,0 Z M16.5454545,15.9090909 C16.5454545,16.0465455 16.5009091,16.1808182 16.4181818,16.2909091 L12.6,21.3818182 C12.4752727,21.5491818 12.2837273,21.6363636 12.0902727,21.6363636 C11.9579091,21.6363636 11.8236364,21.595 11.7090909,21.5090909 C11.4278182,21.2984545 11.3711818,20.8994545 11.5818182,20.6188182 L15.2727273,15.6971818 L15.2727273,4.45454545 C15.2727273,4.10327273 15.5578182,3.81818182 15.9090909,3.81818182 C16.2603636,3.81818182 16.5454545,4.10327273 16.5454545,4.45454545 L16.5454545,15.9090909 L16.5454545,15.9090909 Z" transform="translate(19.09 19.09)" stroke="none" class="main-fill"></path>
  </g></g><style>
          .main-fill {fill: #ffffff;}
          .main-stroke {stroke: #ffffff;}
          .secondary-fill {fill: #000000;}
          .secondary-stroke {stroke: #000000;}

          .main-fill--darken {fill: #d9d9d9;}
          .main-stroke--darken {stroke: #d9d9d9;}
          .secondary-fill--darken {fill: #000000;}
          .secondary-stroke--darken {stroke: #000000;}

          .main-fill--darkener {fill: #bfbfbf;}
          .main-stroke--darkener {stroke: #bfbfbf;}
          .secondary-fill--darkener {fill: #000000;}
          .secondary-stroke--darkener {stroke: #000000;}
        </style></svg>