<svg xmlns="http://www.w3.org/2000/svg" width="70" height="70" viewBox="0 0 70 70" style="width: 100%; height: 100%;"><desc>Made with illustrio</desc>
  
<g class="base"><g fill="none" fill-rule="evenodd" stroke="none" class="main-fill">
    
    <path fill="none" d="M15.9090909,0 C7.13681818,0 0,7.13681818 0,15.9090909 C0,24.6813636 7.13681818,31.8181818 15.9090909,31.8181818 C24.6813636,31.8181818 31.8181818,24.6813636 31.8181818,15.9090909 C31.8181818,7.13681818 24.6813636,0 15.9090909,0 L15.9090909,0 Z M10.0596364,21.7585455 C13.2847273,24.9836364 18.5334545,24.9836364 21.7591818,21.7585455 C22.008,21.5097273 22.4101818,21.5097273 22.659,21.7585455 C22.9078182,22.0073636 22.9078182,22.4095455 22.659,22.6583636 C20.7982727,24.5190909 18.3533636,25.4500909 15.9090909,25.4500909 C13.4648182,25.4500909 11.0205455,24.5190909 9.15981818,22.6583636 C7.357,20.8555455 6.36363636,18.459 6.36363636,15.9090909 C6.36363636,13.3591818 7.35636364,10.962 9.15981818,9.15918182 C10.9626364,7.357 13.3598182,6.36363636 15.9090909,6.36363636 C18.459,6.36363636 20.8555455,7.357 22.6583636,9.15981818 C22.9071818,9.40863636 22.9071818,9.81081818 22.6583636,10.0596364 C22.4095455,10.3084545 22.0073636,10.3084545 21.7585455,10.0596364 C20.1962727,8.49736364 18.1191818,7.63636364 15.9090909,7.63636364 C13.6996364,7.63636364 11.6219091,8.49736364 10.0596364,10.0596364 C8.49672727,11.6219091 7.63636364,13.6996364 7.63636364,15.9090909 C7.63636364,18.1191818 8.49672727,20.1962727 10.0596364,21.7585455 L10.0596364,21.7585455 Z" transform="translate(19.09 19.09)" stroke="none" class="main-fill"></path>
  </g></g><style>
          .main-fill {fill: #ffffff;}
          .main-stroke {stroke: #ffffff;}
          .secondary-fill {fill: #000000;}
          .secondary-stroke {stroke: #000000;}

          .main-fill--darken {fill: #d9d9d9;}
          .main-stroke--darken {stroke: #d9d9d9;}
          .secondary-fill--darken {fill: #000000;}
          .secondary-stroke--darken {stroke: #000000;}

          .main-fill--darkener {fill: #bfbfbf;}
          .main-stroke--darkener {stroke: #bfbfbf;}
          .secondary-fill--darkener {fill: #000000;}
          .secondary-stroke--darkener {stroke: #000000;}
        </style></svg>